# xmcd CD database file
#
# Track frame offsets:
#	177
#	11757
#	25195
#	33710
#	44690
#	56432
#	67040
#	77535
#	86810
#	99517
#	110960
#	125787
#	138990
#	153860
#	166842
#	185640
#	206555
#	218297
#
# Disc length: 3034 seconds
#
# Revision: 2
# Processed by: cddbd v1.4PL0 Copyright (c) Steve Scherf et al.
# Submitted via: CDex 1.50Beta6
#
DISCID=fd0bd812
DTITLE=Brenda Lee - The Very Best Of, Vol 2
DYEAR=1900
DGENRE=Country
TTITLE0=Losing You
TTITLE1=I Wonder
TTITLE2=My Whole World Is Falling Down
TTITLE3=Sweet Impossible You
TTITLE4=As Usual
TTITLE5=Is It True
TTITLE6=Think
TTITLE7=Love Letters
TTITLE8=Too Many Rivers
TTITLE9=Make The World Go Away
TTITLE10=Crying Time
TTITLE11=Sweet Dreams
TTITLE12=Yesterday
TTITLE13=Always On My Mind
TTITLE14=For The Good Times
TTITLE15=Feelings
TTITLE16=Let's Jump The Broomstick
TTITLE17=Rockin' Around The Christmas Tree
EXTD=
EXTT0=
EXTT1=
EXTT2=
EXTT3=
EXTT4=
EXTT5=
EXTT6=
EXTT7=
EXTT8=
EXTT9=
EXTT10=
EXTT11=
EXTT12=
EXTT13=
EXTT14=
EXTT15=
EXTT16=
EXTT17=
PLAYORDER=
